<mxfile host="app.diagrams.net" modified="2023-09-11T15:26:47.623Z" agent="Mozilla/5.0 (Windows NT 10.0; Win64; x64) AppleWebKit/537.36 (KHTML, like Gecko) Chrome/116.0.0.0 Safari/537.36" version="21.7.4" etag="VXaFnl3VZxEXQnVw7zxf" type="github">
  <diagram name="Page-1" id="T16qp5B8aFMbDhRBNAv7">
    <mxGraphModel>
      <root>
        <mxCell id="0" />
        <mxCell id="1" parent="0" />
      </root>
    </mxGraphModel>
  </diagram>
</mxfile>
